<svg width="512" height="512" viewBox="0 0 512 512" fill="none" xmlns="http://www.w3.org/2000/svg">
<path d="M250.5 490C385.81 490 495.5 380.31 495.5 245C495.5 109.69 385.81 0 250.5 0C115.19 0 5.5 109.69 5.5 245C5.5 380.31 115.19 490 250.5 490Z" fill="#6CB3F6"/>
<path d="M327.683 433.668C326.595 430.532 322.946 427.936 319.569 427.936H302.184C299.749 427.936 297.767 425.955 297.767 423.52V392.344C297.767 389.909 299.748 387.927 302.184 387.927H319.565C322.944 387.927 326.595 385.33 327.704 382.139L330.993 374.238C332.466 371.264 331.731 366.857 329.328 364.474L317.062 352.302C316.23 351.476 315.772 350.373 315.772 349.197C315.772 348.02 316.23 346.918 317.062 346.09L339.309 324.018C340.143 323.191 341.258 322.735 342.449 322.735C343.64 322.735 344.756 323.191 345.59 324.018L357.854 336.189C359.373 337.697 361.723 338.597 364.14 338.597C365.437 338.597 366.673 338.328 367.713 337.823L375.722 334.543C378.865 333.468 381.467 329.827 381.467 326.447V309.281C381.467 306.846 383.448 304.865 385.883 304.865H417.381C419.817 304.865 421.798 306.847 421.798 309.281V326.447C421.798 329.827 424.4 333.468 427.598 334.563L435.614 337.85C436.596 338.33 437.829 338.597 439.125 338.597C441.543 338.597 443.893 337.697 445.413 336.189L451.5 330.149V299.618H431.65C430.36 299.618 428.661 298.638 428.016 297.52L411.896 269.599C411.25 268.481 411.25 266.521 411.895 265.404L428.016 237.482C428.661 236.365 430.359 235.384 431.65 235.384H451.502V186.088H440.355C440.364 186.878 440.206 187.674 439.874 188.247L427.42 209.815C426.775 210.932 425.077 211.913 423.786 211.913H416.501V230.588C416.501 231.691 415.604 232.588 414.501 232.588H86.498C85.395 232.588 84.498 231.691 84.498 230.588V186.088H49.498V385.091C64.295 406.282 82.352 425.026 102.951 440.589H330.561L327.683 433.668Z" fill="#C3DDF4"/>
<path d="M297.768 392.345C297.768 389.91 299.749 387.928 302.185 387.928H319.566C322.945 387.928 326.596 385.331 327.705 382.14L330.319 375.862H86.498C84.848 375.862 83.498 377.212 83.498 378.862V398.581C83.498 400.231 84.848 401.581 86.498 401.581H297.768V392.345Z" fill="#EEF6FF"/>
<path d="M450.125 144.523L440.118 127.19C439.472 126.073 439.472 124.112 440.117 122.995L450.125 105.661C450.415 105.16 450.92 104.692 451.502 104.322V89H49.498V187.089H84.498V119.374C84.498 118.271 85.395 117.374 86.498 117.374H414.502C415.605 117.374 416.502 118.271 416.502 119.374V160.386H423.787C425.077 160.386 426.776 161.366 427.421 162.484L439.874 184.053C440.331 184.843 440.457 186.052 440.269 187.089H451.502V145.862C450.921 145.492 450.415 145.024 450.125 144.523Z" fill="#EEF6FF"/>
<path d="M441.502 33.875H59.498C53.998 33.875 49.498 38.375 49.498 43.875V90H451.502V43.875C451.502 38.375 447.002 33.875 441.502 33.875Z" fill="#293D7C"/>
<path d="M79.34 33.875H59.498C53.998 33.875 49.498 38.375 49.498 43.875V90H69.34V43.875C69.34 38.375 73.84 33.875 79.34 33.875Z" fill="#1A2B63"/>
<path d="M72.924 69.948C70.707 69.948 68.546 69.052 66.98 67.496C65.423 65.929 64.528 63.768 64.528 61.552C64.528 59.346 65.424 57.186 66.98 55.618C68.546 54.051 70.708 53.155 72.924 53.155C75.129 53.155 77.301 54.051 78.857 55.618C80.424 57.185 81.321 59.346 81.321 61.552C81.321 63.769 80.424 65.929 78.857 67.496C77.301 69.052 75.129 69.948 72.924 69.948Z" fill="#E26693"/>
<path d="M100.458 69.9481C98.252 69.9481 96.08 69.0521 94.523 67.4841C92.957 65.9281 92.061 63.7681 92.061 61.5511C92.061 59.3451 92.957 57.1851 94.523 55.6171C96.091 54.0501 98.252 53.1541 100.458 53.1541C102.674 53.1541 104.834 54.0501 106.403 55.6171C107.959 57.1841 108.854 59.3451 108.854 61.5511C108.854 63.7561 107.959 65.9281 106.403 67.4841C104.834 69.0521 102.674 69.9481 100.458 69.9481Z" fill="#FFAF10"/>
<path d="M128.004 69.948C125.787 69.948 123.626 69.052 122.07 67.496C120.503 65.929 119.607 63.768 119.607 61.552C119.607 59.346 120.503 57.186 122.07 55.618C123.626 54.051 125.787 53.155 128.004 53.155C130.209 53.155 132.381 54.051 133.937 55.618C135.504 57.185 136.401 59.346 136.401 61.552C136.401 63.769 135.505 65.929 133.937 67.496C132.37 69.052 130.209 69.948 128.004 69.948Z" fill="#37C47A"/>
<path d="M398.881 211.914C397.591 211.914 395.892 210.934 395.247 209.816L382.795 188.248C382.149 187.131 382.149 185.17 382.795 184.053L395.248 162.484C395.893 161.367 397.591 160.386 398.882 160.386H417.503V119.374C417.503 117.724 416.153 116.374 414.503 116.374H86.498C84.848 116.374 83.498 117.724 83.498 119.374V230.589C83.498 232.239 84.848 233.589 86.498 233.589H414.502C416.152 233.589 417.502 232.239 417.502 230.589V211.914H398.881Z" fill="#02AF8E"/>
<path d="M103.34 230.589V119.374C103.34 117.724 104.69 116.374 106.34 116.374H86.498C84.848 116.374 83.498 117.724 83.498 119.374V230.589C83.498 232.239 84.848 233.589 86.498 233.589H106.34C104.69 233.589 103.34 232.239 103.34 230.589Z" fill="#0F9390"/>
<path d="M184 294.973C184 296.623 182.65 297.973 181 297.973H86.498C84.848 297.973 83.498 296.623 83.498 294.973V251.373C83.498 249.723 84.848 248.373 86.498 248.373H181C182.65 248.373 184 249.723 184 251.373V294.973Z" fill="#EEF6FF"/>
<path d="M264.427 358.592C264.427 360.242 263.077 361.592 261.427 361.592H202.945C201.295 361.592 199.945 360.242 199.945 358.592V251.372C199.945 249.722 201.295 248.372 202.945 248.372H261.427C263.077 248.372 264.427 249.722 264.427 251.372V358.592Z" fill="#EEF6FF"/>
<path d="M317.063 352.303C316.231 351.477 315.773 350.374 315.773 349.198C315.773 348.021 316.231 346.919 317.063 346.091L339.31 324.019C339.782 323.551 340.35 323.217 340.965 323.002V251.372C340.965 249.722 339.615 248.372 337.965 248.372H279.483C277.833 248.372 276.483 249.722 276.483 251.372V358.592C276.483 360.242 277.833 361.592 279.483 361.592H326.424L317.063 352.303Z" fill="#EEF6FF"/>
<path d="M357.855 336.19C359.374 337.698 361.724 338.598 364.141 338.598C365.438 338.598 366.674 338.329 367.714 337.824L375.723 334.544C378.866 333.469 381.468 329.828 381.468 326.448V309.282C381.468 306.847 383.449 304.866 385.884 304.866H417.382C417.423 304.866 417.461 304.877 417.502 304.878V279.31L411.896 269.6C411.25 268.482 411.25 266.522 411.895 265.405L417.502 255.695V251.373C417.502 249.723 416.152 248.373 414.502 248.373H356.02C354.37 248.373 353.02 249.723 353.02 251.373V331.391L357.855 336.19Z" fill="#EEF6FF"/>
<path d="M184 358.592C184 360.242 182.65 361.592 181 361.592H86.498C84.848 361.592 83.498 360.242 83.498 358.592V314.992C83.498 313.342 84.848 311.992 86.498 311.992H181C182.65 311.992 184 313.342 184 314.992V358.592Z" fill="#EEF6FF"/>
<path d="M103.34 398.58V378.861C103.34 377.211 104.69 375.861 106.34 375.861H86.498C84.848 375.861 83.498 377.211 83.498 378.861V398.58C83.498 400.23 84.848 401.58 86.498 401.58H106.34C104.69 401.58 103.34 400.23 103.34 398.58Z" fill="#D9EAFC"/>
<path d="M103.34 294.973V251.373C103.34 249.723 104.69 248.373 106.34 248.373H86.498C84.848 248.373 83.498 249.723 83.498 251.373V294.973C83.498 296.623 84.848 297.973 86.498 297.973H106.34C104.69 297.973 103.34 296.623 103.34 294.973Z" fill="#D9EAFC"/>
<path d="M219.787 358.592V251.372C219.787 249.722 221.137 248.372 222.787 248.372H202.945C201.295 248.372 199.945 249.722 199.945 251.372V358.592C199.945 360.242 201.295 361.592 202.945 361.592H222.787C221.137 361.592 219.787 360.242 219.787 358.592Z" fill="#D9EAFC"/>
<path d="M296.325 358.592V251.372C296.325 249.722 297.675 248.372 299.325 248.372H279.483C277.833 248.372 276.483 249.722 276.483 251.372V358.592C276.483 360.242 277.833 361.592 279.483 361.592H299.325C297.675 361.592 296.325 360.242 296.325 358.592Z" fill="#D9EAFC"/>
<path d="M357.855 336.19C359.374 337.698 361.724 338.598 364.141 338.598C365.438 338.598 366.674 338.329 367.714 337.824L372.862 335.716V251.373C372.862 249.723 374.212 248.373 375.862 248.373H356.02C354.37 248.373 353.02 249.723 353.02 251.373V331.391L357.855 336.19Z" fill="#D9EAFC"/>
<path d="M103.34 358.592V314.992C103.34 313.342 104.69 311.992 106.34 311.992H86.498C84.848 311.992 83.498 313.342 83.498 314.992V358.592C83.498 360.242 84.848 361.592 86.498 361.592H106.34C104.69 361.592 103.34 360.242 103.34 358.592Z" fill="#D9EAFC"/>
<path d="M426.34 68.155H382.105C377.963 68.155 374.605 64.798 374.605 60.655C374.605 56.512 377.963 53.155 382.105 53.155H426.34C430.482 53.155 433.84 56.512 433.84 60.655C433.84 64.798 430.482 68.155 426.34 68.155Z" fill="#AEC1ED"/>
<path d="M380.468 506.584C380.468 509.562 382.905 512 385.884 512H417.382C420.361 512 422.799 509.562 422.799 506.584V489.42C422.799 486.441 425.105 483.214 427.923 482.248L435.995 478.941C438.675 477.636 442.596 478.287 444.71 480.386L456.975 492.558C459.089 494.655 462.549 494.655 464.664 492.558L486.907 470.483C489.021 468.385 489.021 464.952 486.907 462.852L474.642 450.679C472.528 448.581 471.877 444.678 473.197 442.007L476.508 434.051C477.486 431.238 480.722 428.934 483.702 428.936H501.083C504.062 428.936 506.5 426.5 506.5 423.52V392.344C506.5 389.365 504.062 386.927 501.083 386.927H483.702C480.723 386.927 477.486 384.625 476.508 381.811L473.197 373.854C471.878 371.183 472.528 367.282 474.642 365.183L486.906 353.013C489.021 350.915 489.021 347.481 486.906 345.382L464.663 323.308C462.549 321.21 459.089 321.21 456.974 323.308L444.708 335.479C442.594 337.578 438.672 338.228 435.993 336.925L427.921 333.616C425.103 332.651 422.797 329.425 422.797 326.446V309.28C422.797 306.301 420.359 303.864 417.38 303.864H385.882C382.903 303.864 380.466 306.302 380.466 309.28V326.446C380.466 329.425 378.159 332.651 375.341 333.616L367.273 336.923C364.594 338.228 360.672 337.578 358.557 335.479L346.292 323.308C344.177 321.21 340.717 321.21 338.602 323.308L316.355 345.381C314.241 347.481 314.241 350.912 316.355 353.012L328.621 365.184C330.736 367.282 331.386 371.185 330.067 373.854L326.756 381.811C325.778 384.626 322.541 386.927 319.562 386.927H302.181C299.203 386.927 296.764 389.365 296.764 392.344V423.52C296.764 426.499 299.202 428.936 302.181 428.936H319.562C322.541 428.934 325.778 431.238 326.756 434.051L330.067 442.009C331.388 444.678 330.737 448.581 328.623 450.679L316.355 462.852C314.241 464.952 314.241 468.385 316.355 470.483L338.602 492.558C340.717 494.655 344.177 494.655 346.291 492.556L358.554 480.384C360.669 478.286 364.591 477.636 367.269 478.94L375.34 482.248C378.158 483.214 380.465 486.44 380.465 489.42V506.584H380.468Z" fill="#445EA0"/>
<path d="M401.63 458.02C429.504 458.02 452.1 435.594 452.1 407.93C452.1 380.266 429.504 357.84 401.63 357.84C373.756 357.84 351.16 380.266 351.16 407.93C351.16 435.594 373.756 458.02 401.63 458.02Z" fill="#FF9518"/>
<path d="M366.518 407.934C366.519 382.86 385.079 362.091 409.311 358.422C406.808 358.044 404.245 357.848 401.635 357.848C373.76 357.848 351.166 380.27 351.165 407.934C351.165 435.596 373.76 458.021 401.635 458.021C404.245 458.021 406.809 457.825 409.311 457.445C385.079 453.774 366.518 433.006 366.518 407.934Z" fill="#EF8318"/>
<path d="M401.634 466.145C369.325 466.145 343.04 440.033 343.04 407.934C343.041 375.836 369.326 349.723 401.634 349.723C433.943 349.723 460.229 375.836 460.229 407.933C460.228 440.032 433.943 466.145 401.634 466.145ZM401.634 365.972C378.286 365.972 359.29 384.795 359.289 407.934C359.289 431.072 378.285 449.897 401.634 449.897C424.984 449.897 443.979 431.072 443.98 407.933C443.98 384.795 424.983 365.972 401.634 365.972Z" fill="#293D7C"/>
<path d="M401.63 429.1C413.412 429.1 422.964 419.622 422.964 407.93C422.964 396.238 413.412 386.76 401.63 386.76C389.848 386.76 380.296 396.238 380.296 407.93C380.296 419.622 389.848 429.1 401.63 429.1Z" fill="#C3DDF4"/>
<path d="M395.652 407.934C395.652 398.928 401.325 391.256 409.311 388.196C406.926 387.281 404.344 386.759 401.634 386.759C389.851 386.759 380.299 396.238 380.299 407.934C380.299 419.626 389.85 429.107 401.634 429.107C404.344 429.107 406.926 428.586 409.311 427.67C401.325 424.609 395.652 416.938 395.652 407.934Z" fill="#AEC1ED"/>
<path d="M401.634 437.23C385.39 437.23 372.174 424.087 372.174 407.933C372.174 391.777 385.39 378.634 401.634 378.634C417.878 378.634 431.094 391.777 431.094 407.932C431.092 424.088 417.876 437.23 401.634 437.23ZM401.634 394.884C394.35 394.884 388.423 400.739 388.423 407.934C388.423 415.127 394.35 420.982 401.634 420.982C408.918 420.982 414.844 415.128 414.844 407.932C414.844 400.738 408.918 394.884 401.634 394.884Z" fill="#DB722C"/>
<path d="M398.881 212.914C397.231 212.914 395.206 211.745 394.381 210.316L381.929 188.748C381.104 187.319 381.104 184.981 381.929 183.553L394.381 161.984C395.206 160.555 397.231 159.386 398.881 159.386H423.787C425.437 159.386 427.462 160.555 428.287 161.984L440.74 183.553C441.565 184.982 441.565 187.32 440.74 188.748L428.287 210.316C427.462 211.745 425.437 212.914 423.787 212.914H398.881Z" fill="#EF8318"/>
<path d="M453.759 147.621C452.109 147.621 450.084 146.452 449.259 145.023L439.252 127.69C438.427 126.261 438.427 123.923 439.252 122.495L449.259 105.161C450.084 103.732 452.109 102.563 453.759 102.563H473.774C475.424 102.563 477.449 103.732 478.274 105.161L488.281 122.495C489.106 123.924 489.106 126.262 488.281 127.69L478.274 145.023C477.449 146.452 475.424 147.621 473.774 147.621H453.759Z" fill="#FFD00D"/>
<path d="M431.65 300.618C430 300.618 427.975 299.449 427.15 298.02L411.03 270.1C410.205 268.671 410.205 266.333 411.03 264.905L427.151 236.983C427.976 235.554 430.001 234.385 431.651 234.385H463.892C465.542 234.385 467.567 235.554 468.392 236.983L484.513 264.905C485.338 266.334 485.338 268.672 484.513 270.1L468.392 298.021C467.567 299.45 465.542 300.619 463.892 300.619L431.65 300.618Z" fill="#FFD00D"/>
<path d="M414.224 210.316L401.772 188.748C400.947 187.319 400.947 184.981 401.772 183.553L414.224 161.984C415.049 160.555 417.074 159.386 418.724 159.386H398.882C397.232 159.386 395.207 160.555 394.382 161.984L381.93 183.553C381.105 184.982 381.105 187.32 381.93 188.748L394.382 210.316C395.207 211.745 397.232 212.914 398.882 212.914H418.724C417.074 212.914 415.049 211.745 414.224 210.316Z" fill="#DB722C"/>
<path d="M469.102 145.023L459.095 127.69C458.27 126.261 458.27 123.923 459.095 122.495L469.102 105.161C469.927 103.732 471.952 102.563 473.602 102.563H453.76C452.11 102.563 450.085 103.732 449.26 105.161L439.253 122.495C438.428 123.924 438.428 126.262 439.253 127.69L449.26 145.023C450.085 146.452 452.11 147.621 453.76 147.621H473.602C471.952 147.621 469.926 146.452 469.102 145.023Z" fill="#FFAF10"/>
<path d="M446.993 298.021L430.872 270.1C430.047 268.671 430.047 266.333 430.872 264.905L446.993 236.983C447.818 235.554 449.843 234.385 451.493 234.385H431.65C430 234.385 427.975 235.554 427.15 236.983L411.029 264.905C410.204 266.334 410.204 268.672 411.029 270.1L427.15 298.021C427.975 299.45 430 300.619 431.65 300.619H451.492C449.843 300.618 447.818 299.449 446.993 298.021Z" fill="#FFAF10"/>
</svg>
